<svg xmlns="http://www.w3.org/2000/svg" viewBox="520 690 456 118" fill="#50727c" role="img" aria-label="ATBOS">
  <path transform="translate(533.174411, 800.999911)" d="M 54.453125 -81.453125 L 22.34375 0 L 2.84375 0 L 38.40625 -90 C 40.300781 -94.695312 43 -98.046875 46.5 -100.046875 C 50 -102.046875 54.398438 -103.046875 59.703125 -103.046875 C 65.003906 -103.046875 69.378906 -102.046875 72.828125 -100.046875 C 76.273438 -98.046875 78.898438 -94.695312 80.703125 -90 L 114.90625 0 L 95.25 0 L 64.5 -81.453125 C 63.601562 -83.753906 61.953125 -84.90625 59.546875 -84.90625 C 57.148438 -84.90625 55.453125 -83.753906 54.453125 -81.453125 Z M 54.453125 -81.453125 "/>
  <path transform="translate(634.724433, 800.999911)" d="M 4.34375 -101.25 L 81.296875 -101.25 L 81.296875 -83.546875 L 51.75 -83.546875 L 51.75 0 L 33.90625 0 L 33.90625 -83.546875 L 4.34375 -83.546875 Z M 4.34375 -101.25 "/>
  <path transform="translate(714.674454, 800.999911)" d="M 20.703125 -101.25 L 65.25 -101.25 C 77.144531 -101.25 85.769531 -98.695312 91.125 -93.59375 C 96.476562 -88.5 99.15625 -81.800781 99.15625 -73.5 C 99.15625 -67.695312 97.90625 -62.96875 95.40625 -59.3125 C 92.90625 -55.664062 89.300781 -52.894531 84.59375 -51 C 89.394531 -49.101562 93.09375 -46.253906 95.6875 -42.453125 C 98.289062 -38.648438 99.59375 -33.800781 99.59375 -27.90625 C 99.59375 -22.5 98.414062 -17.695312 96.0625 -13.5 C 93.71875 -9.300781 90.070312 -6 85.125 -3.59375 C 80.175781 -1.195312 73.703125 0 65.703125 0 L 20.703125 0 C 15.097656 0 12.296875 -2.75 12.296875 -8.25 L 12.296875 -93 C 12.296875 -98.5 15.097656 -101.25 20.703125 -101.25 Z M 29.703125 -43.796875 L 29.703125 -19.203125 C 29.703125 -18.097656 30.351562 -17.546875 31.65625 -17.546875 L 66.15625 -17.546875 C 71.445312 -17.546875 75.367188 -18.71875 77.921875 -21.0625 C 80.472656 -23.414062 81.75 -26.644531 81.75 -30.75 C 81.75 -39.445312 76.550781 -43.796875 66.15625 -43.796875 Z M 29.703125 -82.046875 L 29.703125 -58.5 L 65.703125 -58.5 C 76.097656 -58.5 81.296875 -62.550781 81.296875 -70.65625 C 81.296875 -74.65625 80.070312 -77.851562 77.625 -80.25 C 75.175781 -82.644531 71.25 -83.84375 65.84375 -83.84375 L 31.65625 -83.84375 C 30.351562 -83.84375 29.703125 -83.242188 29.703125 -82.046875 Z M 29.703125 -82.046875 "/>
  <path transform="translate(817.776707, 784.499912)" d="M 36.203125 -67.5 L 45.40625 -67.5 C 55.195312 -67.5 62.726562 -64.679688 68 -59.046875 C 73.269531 -53.410156 75.90625 -44.925781 75.90625 -33.59375 C 75.90625 -22.332031 73.285156 -13.914062 68.046875 -8.34375 C 62.816406 -2.78125 55.269531 0 45.40625 0 L 36.203125 0 C 26.335938 0 18.785156 -2.78125 13.546875 -8.34375 C 8.316406 -13.914062 5.703125 -22.332031 5.703125 -33.59375 C 5.703125 -44.925781 8.332031 -53.410156 13.59375 -59.046875 C 18.863281 -64.679688 26.398438 -67.5 36.203125 -67.5 Z M 45.40625 -55.703125 L 36.203125 -55.703125 C 29.734375 -55.703125 25 -53.953125 22 -50.453125 C 19 -46.953125 17.5 -41.332031 17.5 -33.59375 C 17.5 -25.925781 18.984375 -20.375 21.953125 -16.9375 C 24.921875 -13.507812 29.671875 -11.796875 36.203125 -11.796875 L 45.40625 -11.796875 C 51.9375 -11.796875 56.664062 -13.507812 59.59375 -16.9375 C 62.53125 -20.375 64 -25.960938 64 -33.703125 C 64 -41.429688 62.53125 -47.03125 59.59375 -50.5 C 56.664062 -53.96875 51.9375 -55.703125 45.40625 -55.703125 Z M 45.40625 -55.703125 "/>
  <path transform="translate(895.573567, 784.499912)" d="M 26.09375 -67.5 L 60.296875 -67.5 L 60.296875 -55.703125 L 25.703125 -55.703125 C 22.628906 -55.703125 20.394531 -54.953125 19 -53.453125 C 17.601562 -51.953125 16.90625 -50.035156 16.90625 -47.703125 C 16.90625 -45.628906 17.585938 -43.773438 18.953125 -42.140625 C 20.316406 -40.515625 22.96875 -39.703125 26.90625 -39.703125 L 42.703125 -39.703125 C 47.296875 -39.703125 51.078125 -39.132812 54.046875 -38 C 57.015625 -36.863281 59.316406 -35.328125 60.953125 -33.390625 C 62.585938 -31.460938 63.738281 -29.316406 64.40625 -26.953125 C 65.070312 -24.585938 65.40625 -22.203125 65.40625 -19.796875 C 65.40625 -15.992188 64.6875 -12.609375 63.25 -9.640625 C 61.8125 -6.679688 59.507812 -4.332031 56.34375 -2.59375 C 53.175781 -0.863281 49.03125 0 43.90625 0 L 6.296875 0 L 6.296875 -11.796875 L 44.296875 -11.796875 C 47.492188 -11.796875 49.84375 -12.578125 51.34375 -14.140625 C 52.84375 -15.710938 53.59375 -17.734375 53.59375 -20.203125 C 53.59375 -22.398438 52.859375 -24.347656 51.390625 -26.046875 C 49.929688 -27.742188 47.132812 -28.59375 43 -28.59375 L 27.296875 -28.59375 C 22.828125 -28.59375 19.144531 -29.160156 16.25 -30.296875 C 13.351562 -31.429688 11.085938 -32.945312 9.453125 -34.84375 C 7.816406 -36.75 6.679688 -38.847656 6.046875 -41.140625 C 5.410156 -43.441406 5.09375 -45.757812 5.09375 -48.09375 C 5.09375 -51.832031 5.8125 -55.164062 7.25 -58.09375 C 8.6875 -61.03125 10.9375 -63.332031 14 -65 C 17.0625 -66.664062 21.09375 -67.5 26.09375 -67.5 Z M 26.09375 -67.5 "/>
</svg>
