<svg xmlns="http://www.w3.org/2000/svg" width="64" height="64" viewBox="0 0 64 64">
  <rect width="64" height="64" rx="14" fill="#163f45"/>
  <path
    transform="translate(9.934 51.311) scale(0.374791)"
    fill="#f5f1e8"
    d="M 54.453125 -81.453125 L 22.34375 0 L 2.84375 0 L 38.40625 -90 C 40.300781 -94.695312 43 -98.046875 46.5 -100.046875 C 50 -102.046875 54.398438 -103.046875 59.703125 -103.046875 C 65.003906 -103.046875 69.378906 -102.046875 72.828125 -100.046875 C 76.273438 -98.046875 78.898438 -94.695312 80.703125 -90 L 114.90625 0 L 95.25 0 L 64.5 -81.453125 C 63.601562 -83.753906 61.953125 -84.90625 59.546875 -84.90625 C 57.148438 -84.90625 55.453125 -83.753906 54.453125 -81.453125 Z M 54.453125 -81.453125 "
  />
</svg>
